<?xml version="1.0" encoding="UTF-8" standalone="no"?><!DOCTYPE svg PUBLIC "-//W3C//DTD SVG 1.1//EN" "http://www.w3.org/Graphics/SVG/1.1/DTD/svg11.dtd"><svg width="100%" height="100%" viewBox="0 0 221 61" version="1.1" xmlns="http://www.w3.org/2000/svg" xmlns:xlink="http://www.w3.org/1999/xlink" xml:space="preserve" xmlns:serif="http://www.serif.com/" style="fill-rule:evenodd;clip-rule:evenodd;stroke-linejoin:round;stroke-miterlimit:2;"><path d="M61.186497313394,10.730236073969l0,38.991787197696c0,5.922178505591 -4.80805771055,10.730236073969 -10.730236391258,10.730236073969l-39.726024530878,0c-5.922178680707,0 -10.730236391258,-4.808057568378 -10.730236391258,-10.730236073969l0,-38.991787197696c0,-5.922178505591 4.80805771055,-10.730236073969 10.730236391258,-10.730236073969l39.726024530878,0c5.922178680707,0 10.730236391258,4.808057568378 10.730236391258,10.730236073969Zm-19.30119269145,1.174831833116c-5.099231821677,0 -9.239161094322,4.139929272645 -9.239161094322,9.239161094322c0,5.099231821677 4.139929272646,9.239161094322 9.239161094322,9.239161094322c5.099231821677,0 9.239161094322,-4.139929272646 9.239161094322,-9.239161094322c0,-5.099231821677 -4.139929272645,-9.239161094322 -9.239161094322,-9.239161094322Z"/><path d="M80.168768083124,43.263629672817l4.69,0l0,-21.98l6.86,0l0,-4.095l-18.48,0l0,4.095l6.93,0l0,21.98Z" style="fill-rule:nonzero;"/><path d="M104.983768083124,23.663629672817c-2.275,0 -4.2,0.805 -5.32,2.31l0,-9.205l-4.48,0l0,26.495l4.48,0l0,-11.34c0,-2.52 1.68,-4.165 4.095,-4.165c2.45,0 4.095,1.68 4.095,4.165l0,11.34l4.48,0l0,-12.425c0,-4.2 -3.045,-7.175 -7.35,-7.175Z" style="fill-rule:nonzero;"/><path d="M116.533768083124,21.528629672817l4.48,0l0,-4.655l-4.48,0l0,4.655Zm0,21.735l4.48,0l0,-19.215l-4.48,0l0,19.215Z" style="fill-rule:nonzero;"/><path d="M135.398768083124,23.628629672817c-2.45,0 -4.48,0.945 -5.565,2.66l0,-2.24l-4.235,0l0,19.215l4.48,0l0,-11.375c0,-2.52 1.68,-4.13 4.095,-4.13c2.45,0 4.095,1.645 4.095,4.13l0,11.375l4.48,0l0,-12.425c0,-4.235 -3.045,-7.21 -7.35,-7.21Z" style="fill-rule:nonzero;"/><path d="M164.658768083124,24.048629672817l-5.285,0l-7.84,8.365l0,-15.645l-4.48,0l0,26.495l4.48,0l0,-5.075l3.01,-3.115l5.18,8.19l4.935,0l-7.175,-11.41l7.175,-7.805Z" style="fill-rule:nonzero;"/><path d="M167.598768083124,43.263629672817l16.66,0l0,-4.095l-11.97,0l0,-21.98l-4.69,0l0,26.075Z" style="fill-rule:nonzero;"/><path d="M205.923768083124,33.008629672817c0,-5.145 -3.955,-9.38 -9.415,-9.38c-5.46,0 -9.66,4.27 -9.66,10.01c0,5.6 4.06,10.045 9.975,10.045c3.99,0 7.14,-1.96 8.33,-4.725l-3.64,-1.785c-0.875,1.54 -2.45,2.59 -4.655,2.59c-2.905,0 -5.075,-1.89 -5.355,-4.83l14.175,0c0.175,-0.525 0.245,-1.26 0.245,-1.925Zm-14.315,-1.47c0.525,-2.695 2.45,-4.235 4.9,-4.235c2.415,0 4.445,1.75 4.62,4.235l-9.52,0Z" style="fill-rule:nonzero;"/><path d="M218.243768083124,43.473629672817c0.735,0 1.575,-0.07 2.275,-0.175l0,-3.57c-0.455,0.07 -1.015,0.105 -1.295,0.105c-2.905,0 -3.5,-1.54 -3.5,-3.08l0,-8.645l4.69,0l0,-3.99l-4.69,0l0,-5.705l-4.48,0l0,2.8c0,1.855 -1.085,2.905 -2.975,2.905l-0.595,0l0,3.99l3.57,0l0,8.645c0,4.235 2.555,6.72 7,6.72Z" style="fill-rule:nonzero;"/></svg>